<svg xmlns="http://www.w3.org/2000/svg" xml:space="preserve" id="Layer_1" x="0" y="0" viewBox="0 0 1000 800">
  <style>
    .st1{fill:#135677}.st4{opacity:.15}.st5{stroke-linecap:round}.st5,.st6{fill:none;stroke:#02283f;stroke-width:4;stroke-linejoin:round;stroke-miterlimit:10}.st7,.st8{fill:#ffbf73}.st8{opacity:.43}.st12,.st9{fill:none;stroke-linecap:round;stroke-miterlimit:10}.st9{stroke:#135677;stroke-width:8;stroke-linejoin:round}.st12{opacity:.21;stroke:#72757c;stroke-width:3}.st13{opacity:.2;fill:#72757c}.st14{fill:#ffc88d}.st15{opacity:.2;fill:#ffbf73}.st16{fill:#fff}.st17{fill:#82818c}.st18,.st20{fill:none;stroke:#135677;stroke-width:6;stroke-linecap:round;stroke-linejoin:round;stroke-miterlimit:10}.st20{stroke:#cce1ea;stroke-width:4}
  </style>
  <path id="XMLID_78_" d="M0 0h1000v1000H0z" style="fill:#e0f4fb"/>
  <path d="M63.2 959.2c0 2.5-1.2 3.7-2.6 3.7-1.1 0-1.9-.5-2.1-1.4-.4.5-1 .8-1.8.8-1.5 0-2.6-1.2-2.6-2.8s1.1-2.8 2.6-2.8c.7 0 1.2.3 1.6.7v-.5h1.6v3.9c0 .8.3 1.4 1 1.4.9 0 1.7-.9 1.7-3 0-3-2.3-5.3-5.4-5.3s-5.6 2.4-5.6 5.7 2.5 5.7 5.9 5.7c1.1 0 2.1-.2 2.9-.4v.6c-.8.3-1.7.4-2.9.4-3.7 0-6.5-2.6-6.5-6.2 0-3.4 2.7-6.2 6.2-6.2 3.9-.2 6 2.9 6 5.7m-4.9.3c0-.8-.6-1.4-1.3-1.4-.8 0-1.3.5-1.3 1.4 0 .8.6 1.3 1.3 1.3.8.1 1.3-.5 1.3-1.3M69.4 955.1v2c-1.2-.1-2.6.5-2.6 2.4v4.3h-1.9v-8.6h1.9v1.4c.5-1.1 1.5-1.5 2.6-1.5M74.6 962.3c1 0 1.8-.5 2.2-1.1l1.5.9c-.8 1.2-2.1 1.9-3.8 1.9-2.8 0-4.7-1.9-4.7-4.5 0-2.5 1.8-4.5 4.5-4.5 2.6 0 4.3 2.1 4.3 4.5 0 .3 0 .5-.1.8h-6.8c.4 1.3 1.5 2 2.9 2m2.3-3.5c-.3-1.5-1.3-2.1-2.5-2.1-1.4 0-2.3.8-2.6 2.1zM88.9 955.2v8.6H87v-1.2c-.7.9-1.7 1.5-3 1.5-2.3 0-4.3-2-4.3-4.5 0-2.6 1.9-4.5 4.3-4.5 1.3 0 2.3.5 3 1.4v-1.2h1.9zm-1.8 4.3c0-1.6-1.2-2.7-2.7-2.7s-2.7 1.1-2.7 2.7 1.2 2.7 2.7 2.7c1.5.1 2.7-1.1 2.7-2.7M91.1 951.3H93v12.5h-1.9zM102.9 955.2l-3.3 8.6h-2.1l-3.3-8.6h2l2.4 6.5 2.4-6.5zM104.2 955.2h1.9v8.9c0 2.4-1.2 3.5-3.5 3.3v-1.8c1.1.1 1.7-.3 1.7-1.5v-8.9zm-.2-2.4c0-.7.5-1.2 1.2-1.2s1.2.5 1.2 1.2c0 .6-.5 1.2-1.2 1.2s-1.2-.6-1.2-1.2M116 955.2l-3.3 8.8c-.8 2.2-2.2 3.3-4.2 3.2v-1.7c1.2.1 1.9-.5 2.3-1.7l.1-.2-3.6-8.4h2l2.6 6.2 2.2-6.2zM211.9 938.7c0 2.1-1.5 3.8-3.6 3.8h-3v-7.6h3c2.1 0 3.6 1.7 3.6 3.8m-1 0c0-1.6-1.1-2.9-2.6-2.9h-2v5.7h2c1.5.1 2.6-1.2 2.6-2.8M219.5 940.8h-3.4l-.6 1.7h-1.1l2.8-7.6h1.1l2.8 7.6H220zm-.3-.9-1.4-3.8-1.4 3.8zM226.4 939.4v3.1h-1v-3.1l-2.7-4.5h1.1l2.1 3.6 2.1-3.6h1.1zM242.1 940.1c0 1.5-1.1 2.6-2.6 2.6s-2.6-1.1-2.6-2.6c0-.6.2-1.1.5-1.5l2.5-3.7h1.2l-1.8 2.7h.4c1.3-.1 2.4 1 2.4 2.5m-1 0c0-1-.7-1.6-1.6-1.6-1 0-1.6.6-1.6 1.6s.7 1.6 1.6 1.6 1.6-.7 1.6-1.6M250.1 940.3c0 1.5-1.2 2.4-2.6 2.4-1.1 0-2.1-.5-2.5-1.6l.9-.5c.2.8.8 1.1 1.7 1.1s1.6-.5 1.6-1.4-.7-1.4-1.6-1.4h-2.2l.3-4h4.2v.9h-3.3l-.1 2h1.1c1.3.1 2.5.9 2.5 2.5M58.9 938.7c0 2.1-1.5 3.8-3.6 3.8h-3v-7.6h3c2.1 0 3.6 1.7 3.6 3.8m-1 0c0-1.6-1.1-2.9-2.6-2.9h-2v5.7h2c1.5.1 2.6-1.2 2.6-2.8M67 941.6v1h-4.6V935h4.5v1h-3.5v2.3h3.2v.9h-3.2v2.4zM70 940.8l.9-.5c.3.8.9 1.4 2 1.4s1.6-.5 1.6-1.2c0-.8-.7-1-1.8-1.4-1.2-.4-2.4-.8-2.4-2.2s1.1-2.2 2.4-2.2 2.2.7 2.6 1.7l-.8.5c-.3-.7-.8-1.2-1.7-1.2-.8 0-1.4.4-1.4 1.1s.5 1 1.6 1.3c1.3.4 2.6.8 2.6 2.3 0 1.3-1.1 2.2-2.6 2.2-1.5.1-2.6-.7-3-1.8M80 934.9v7.6h-1v-7.6zM91.3 939.2c0 1.9-1.4 3.5-3.7 3.5-2.4 0-4-1.8-4-4s1.7-4 4-4c1.4 0 2.7.8 3.3 1.8l-.9.5c-.4-.8-1.4-1.4-2.4-1.4-1.8 0-3 1.3-3 3s1.2 3 3 3c1.6 0 2.5-.9 2.7-2h-2.8v-.9h3.8zM100.6 934.9v7.6h-.8l-3.9-5.7v5.7h-1v-7.6h.8l3.9 5.7v-5.7zM109.1 941.6v1h-4.6V935h4.5v1h-3.5v2.3h3.2v.9h-3.2v2.4zM119.2 938.7c0 2.1-1.5 3.8-3.6 3.8h-3v-7.6h3c2 0 3.6 1.7 3.6 3.8m-1 0c0-1.6-1.1-2.9-2.6-2.9h-2v5.7h2c1.5.1 2.6-1.2 2.6-2.8M133.2 940.4c0 1.2-1 2.2-2.2 2.2h-3.3V935h3c1.2 0 2.1.9 2.1 2.1 0 .7-.3 1.2-.8 1.6.7.2 1.2.8 1.2 1.7m-4.5-4.6v2.3h2c.6 0 1.1-.5 1.1-1.2 0-.6-.5-1.2-1.1-1.2h-2zm3.5 4.5c0-.7-.5-1.2-1.2-1.2h-2.3v2.5h2.3c.7 0 1.2-.6 1.2-1.3M139.4 939.4v3.1h-1v-3.1l-2.7-4.5h1.1l2.1 3.6 2.1-3.6h1.1zM204.8 958.1c0-3.6 2.7-6.4 6.5-6.4 2.3 0 4.3 1.2 5.3 3l-1.8 1c-.7-1.2-2-2-3.6-2-2.7 0-4.4 1.9-4.4 4.4s1.8 4.4 4.4 4.4c1.6 0 2.9-.8 3.6-2l1.8 1c-1 1.8-3 3-5.3 3-3.8 0-6.5-2.8-6.5-6.4M218 952.9c0-.7.5-1.2 1.2-1.2s1.2.5 1.2 1.2-.5 1.2-1.2 1.2c-.6 0-1.2-.5-1.2-1.2m.3 2.5h1.9v8.9h-1.9zM225.2 957.3v4.2c0 1.1.7 1.1 2.2 1v1.7c-2.9.4-4.1-.5-4.1-2.8v-4.2h-1.6v-1.8h1.6v-1.9l1.9-.6v2.5h2.2v1.8h-2.2zM237.3 955.4l-3.4 9.1c-.8 2.2-2.3 3.4-4.3 3.3V966c1.2.1 1.9-.6 2.4-1.7l.1-.2-3.8-8.7h2.1l2.6 6.4 2.3-6.4zM247.5 959.8h-2.4v4.5h-2v-12.4h5c2.2 0 4 1.8 4 4 0 1.6-1 3-2.5 3.6l2.8 4.8h-2.2zm-2.4-1.8h2.9c1.1 0 1.9-.9 1.9-2.1s-.9-2.1-1.9-2.1h-2.9zM252.8 959.9c0-2.6 2.1-4.7 4.7-4.7s4.7 2 4.7 4.7c0 2.6-2.1 4.7-4.7 4.7-2.6-.1-4.7-2.1-4.7-4.7m7.4 0c0-1.6-1.2-2.8-2.8-2.8s-2.8 1.2-2.8 2.8 1.2 2.8 2.8 2.8 2.8-1.2 2.8-2.8M272.8 955.4v8.9h-1.9V963c-.7.9-1.7 1.5-3.1 1.5-2.4 0-4.4-2-4.4-4.7 0-2.6 2-4.7 4.4-4.7 1.4 0 2.4.6 3.1 1.5v-1.3h1.9zm-1.9 4.5c0-1.6-1.2-2.8-2.8-2.8s-2.8 1.2-2.8 2.8 1.2 2.8 2.8 2.8 2.8-1.2 2.8-2.8M284 951.9v12.4h-1.9V963c-.7.9-1.7 1.5-3.1 1.5-2.4 0-4.4-2-4.4-4.7 0-2.6 2-4.7 4.4-4.7 1.4 0 2.4.6 3.1 1.5v-4.8h1.9zm-1.9 8c0-1.6-1.2-2.8-2.8-2.8s-2.8 1.2-2.8 2.8 1.2 2.8 2.8 2.8c1.5 0 2.8-1.2 2.8-2.8M846.1 938.7c0 2.1-1.5 3.8-3.6 3.8h-3v-7.6h3c2.1 0 3.6 1.7 3.6 3.8m-.9 0c0-1.6-1.1-2.9-2.6-2.9h-2v5.7h2c1.5.1 2.6-1.2 2.6-2.8M849.3 938.7c0-2.2 1.7-4 3.9-4s4 1.8 4 4-1.7 4-4 4c-2.2 0-3.9-1.8-3.9-4m6.8 0c0-1.7-1.3-3-2.9-3-1.7 0-2.9 1.3-2.9 3s1.3 3 2.9 3c1.7 0 2.9-1.3 2.9-3M859.8 934.9h1.1l1.7 6.3 1.9-6.3h1l1.9 6.3 1.7-6.3h1.1l-2.2 7.6h-1.2l-1.8-6.1-1.8 6.1H862zM879.3 934.9v7.6h-.8l-3.9-5.7v5.7h-1v-7.6h.8l3.9 5.7v-5.7zM887.5 941.6v1h-4.3V935h1v6.7h3.3zM889.9 938.7c0-2.2 1.7-4 3.9-4s4 1.8 4 4-1.7 4-4 4c-2.2 0-3.9-1.8-3.9-4m6.9 0c0-1.7-1.3-3-2.9-3-1.7 0-2.9 1.3-2.9 3s1.3 3 2.9 3 2.9-1.3 2.9-3M905.4 940.8H902l-.6 1.7h-1.1l2.8-7.6h1.1l2.8 7.6h-1zm-.3-.9-1.4-3.8-1.4 3.8zM916.9 938.7c0 2.1-1.5 3.8-3.6 3.8h-3v-7.6h3c2.1 0 3.6 1.7 3.6 3.8m-1 0c0-1.6-1.1-2.9-2.6-2.9h-2v5.7h2c1.6.1 2.6-1.2 2.6-2.8M926.5 935.8v2.5h3.2v1h-3.2v3.2h-1v-7.6h4.4v1h-3.4zM936.2 939.6h-1.8v2.9h-1v-7.6h3c1.3 0 2.4 1.1 2.4 2.4 0 1-.7 1.9-1.6 2.2l1.8 3.1h-1.1zm-1.8-.9h2c.8 0 1.4-.6 1.4-1.4s-.6-1.4-1.4-1.4h-2zM941.9 938.7c0-2.2 1.7-4 3.9-4s4 1.8 4 4-1.7 4-4 4c-2.2 0-3.9-1.8-3.9-4m6.9 0c0-1.7-1.3-3-2.9-3-1.7 0-2.9 1.3-2.9 3s1.3 3 2.9 3 2.9-1.3 2.9-3M960.4 942.5h-1v-6l-2.5 4.2h-.1l-2.5-4.1v5.9h-1v-7.6h1.1l2.4 4 2.4-4h1.1v7.6zM839.3 952.9c0-.7.5-1.2 1.2-1.2s1.2.5 1.2 1.2-.5 1.2-1.2 1.2c-.6 0-1.2-.5-1.2-1.2m.3 2.5h1.9v8.9h-1.9zM843.7 951.4h1.9v12.9h-1.9zM847.8 951.4h1.9v12.9h-1.9zM852 951.4h1.9v12.9H852zM864 955.4v8.9h-1.9v-1.1c-.6.9-1.5 1.4-2.7 1.4-2 0-3.4-1.3-3.4-3.6v-5.4h1.9v5.2c0 1.3.8 2.1 2 2.1 1.3 0 2.2-.7 2.2-2.5v-4.7h1.9zM872.6 961.8c0 1.8-1.5 2.7-3.5 2.7-1.8 0-3-.8-3.6-2.1l1.6-1c.3.8 1 1.3 2 1.3.8 0 1.5-.3 1.5-1 0-1.6-4.8-.7-4.8-3.9 0-1.7 1.4-2.7 3.2-2.7 1.5 0 2.7.7 3.3 1.8l-1.6.9c-.3-.7-.9-1-1.7-1-.7 0-1.3.3-1.3.9.2 1.8 4.9.8 4.9 4.1M876.7 957.3v4.2c0 1.1.7 1.1 2.2 1v1.7c-2.9.4-4.1-.5-4.1-2.8v-4.2h-1.6v-1.8h1.6v-1.9l1.9-.6v2.5h2.2v1.8h-2.2zM885.4 955.3v2.1c-1.3-.1-2.7.5-2.7 2.5v4.5h-1.9v-8.9h1.9v1.5c.5-1.3 1.5-1.7 2.7-1.7M895.3 955.4v8.9h-1.9V963c-.7.9-1.7 1.5-3.1 1.5-2.4 0-4.4-2-4.4-4.7 0-2.6 2-4.7 4.4-4.7 1.4 0 2.4.6 3.1 1.5v-1.3h1.9zm-1.9 4.5c0-1.6-1.2-2.8-2.8-2.8s-2.8 1.2-2.8 2.8 1.2 2.8 2.8 2.8 2.8-1.2 2.8-2.8M900.3 957.3v4.2c0 1.1.7 1.1 2.2 1v1.7c-2.9.4-4.1-.5-4.1-2.8v-4.2h-1.6v-1.8h1.6v-1.9l1.9-.6v2.5h2.2v1.8h-2.2zM903.9 952.9c0-.7.5-1.2 1.2-1.2s1.2.5 1.2 1.2-.5 1.2-1.2 1.2c-.6 0-1.2-.5-1.2-1.2m.3 2.5h1.9v8.9h-1.9zM907.8 959.9c0-2.6 2.1-4.7 4.7-4.7s4.7 2 4.7 4.7c0 2.6-2.1 4.7-4.7 4.7-2.6-.1-4.7-2.1-4.7-4.7m7.5 0c0-1.6-1.2-2.8-2.8-2.8s-2.8 1.2-2.8 2.8 1.2 2.8 2.8 2.8 2.8-1.2 2.8-2.8M927 958.9v5.4h-1.9v-5.2c0-1.3-.8-2.1-2-2.1-1.3 0-2.2.7-2.2 2.5v4.7H919v-8.9h1.9v1.1c.6-.9 1.5-1.4 2.7-1.4 1.9.2 3.4 1.6 3.4 3.9M935.5 961.8c0 1.8-1.5 2.7-3.5 2.7-1.8 0-3-.8-3.6-2.1l1.6-1c.3.8 1 1.3 2 1.3.8 0 1.5-.3 1.5-1 0-1.6-4.8-.7-4.8-3.9 0-1.7 1.4-2.7 3.2-2.7 1.5 0 2.7.7 3.3 1.8l-1.6.9c-.3-.7-.9-1-1.7-1-.7 0-1.3.3-1.3.9.1 1.8 4.9.8 4.9 4.1M936.8 963.2c0-.7.6-1.3 1.3-1.3s1.3.6 1.3 1.3-.6 1.3-1.3 1.3-1.3-.6-1.3-1.3M940.3 959.9c0-2.6 2-4.7 4.7-4.7 1.7 0 3.2.9 3.9 2.3l-1.6 1c-.4-.8-1.3-1.4-2.3-1.4-1.6 0-2.7 1.2-2.7 2.8s1.2 2.8 2.7 2.8c1.1 0 1.9-.5 2.4-1.4l1.6.9c-.7 1.4-2.2 2.3-4 2.3-2.7 0-4.7-2-4.7-4.6M949.7 959.9c0-2.6 2.1-4.7 4.7-4.7s4.7 2 4.7 4.7c0 2.6-2.1 4.7-4.7 4.7-2.6-.1-4.7-2.1-4.7-4.7m7.5 0c0-1.6-1.2-2.8-2.8-2.8s-2.8 1.2-2.8 2.8 1.2 2.8 2.8 2.8 2.8-1.2 2.8-2.8" class="st1"/>
  <path id="XMLID_59_" d="m562.7 315.7 21.4 23.9" style="opacity:.15;fill:none;stroke:#135677;stroke-width:4;stroke-linecap:round;stroke-linejoin:round;stroke-miterlimit:10"/>
  <g id="XMLID_187_" style="opacity:.6">
    <g id="XMLID_72_" class="st4">
      <g id="XMLID_70_">
        <path id="XMLID_67_" d="M108.8 329h152.5v371.6H108.8z" class="st5"/>
      </g>
      <path id="XMLID_73_" d="M142 698V329" class="st5"/>
      <path id="XMLID_74_" d="M230 698V329" class="st5"/>
      <path id="XMLID_75_" d="M186 698V329" class="st5"/>
      <path id="XMLID_76_" d="M109 368h153" class="st5"/>
      <path id="XMLID_77_" d="M109 387h153" class="st5"/>
      <path id="XMLID_80_" d="M109 434h153" class="st5"/>
      <path id="XMLID_79_" d="M109 455h153" class="st5"/>
      <path id="XMLID_82_" d="M109 504h153" class="st5"/>
      <path id="XMLID_81_" d="M109 525h153" class="st5"/>
      <path id="XMLID_85_" d="M109 576h153" class="st5"/>
      <path id="XMLID_83_" d="M109 596h153" class="st5"/>
      <path id="XMLID_90_" d="M109 639h153" class="st5"/>
      <path id="XMLID_89_" d="M109 658h153" class="st5"/>
      <path id="XMLID_71_" d="M142.8 296.4h87.7v33.4h-87.7z" class="st5"/>
      <path id="XMLID_92_" d="M163.2 263h46.9v33.4h-46.9z" class="st5"/>
    </g>
    <g id="XMLID_69_" class="st4">
      <path id="XMLID_20_" d="M748.3 699.7h-61.8V327.6h163v372.1h-48" class="st5"/>
      <path id="XMLID_23_" d="M707.6 361.7h19.7v34.6h-19.7z" class="st5"/>
      <path id="XMLID_26_" d="M741.3 361.7H761v34.6h-19.7z" class="st5"/>
      <path id="XMLID_27_" d="M775 361.7h19.7v34.6H775z" class="st5"/>
      <path id="XMLID_28_" d="M808.8 361.7h19.7v34.6h-19.7z" class="st5"/>
      <path id="XMLID_32_" d="M707.6 413.7h19.7v34.6h-19.7z" class="st5"/>
      <path id="XMLID_31_" d="M741.3 413.7H761v34.6h-19.7z" class="st5"/>
      <path id="XMLID_30_" d="M775 413.7h19.7v34.6H775z" class="st5"/>
      <path id="XMLID_29_" d="M808.8 413.7h19.7v34.6h-19.7z" class="st5"/>
      <path id="XMLID_38_" d="M707.6 512.7h19.7v29.6h-19.7z" class="st5"/>
      <path id="XMLID_37_" d="M741.3 512.7H761v29.6h-19.7z" class="st5"/>
      <path id="XMLID_36_" d="M775 512.7h19.7v29.6H775z" class="st5"/>
      <path id="XMLID_35_" d="M808.8 512.7h19.7v29.6h-19.7z" class="st5"/>
      <path id="XMLID_45_" d="M707.6 618.1h19.7v29.6h-19.7z" class="st5"/>
      <path id="XMLID_44_" d="M741.3 618.1H761v29.6h-19.7z" class="st5"/>
      <path id="XMLID_43_" d="M775 618.1h19.7v29.6H775z" class="st5"/>
      <path id="XMLID_42_" d="M808.8 618.1h19.7v29.6h-19.7z" class="st5"/>
      <path id="XMLID_33_" d="M707 478h121" class="st5"/>
      <path id="XMLID_34_" d="M707 494h121" class="st5"/>
      <path id="XMLID_39_" d="M707 562h121" class="st5"/>
      <path id="XMLID_40_" d="M707 579h121" class="st5"/>
      <path id="XMLID_41_" d="M707 596h121" class="st5"/>
      <path id="XMLID_24_" d="M717.4 292H828v35.6H717.4z" class="st5"/>
      <path id="XMLID_47_" d="M741.3 256.4h62.8V292h-62.8z" class="st5"/>
      <path id="XMLID_48_" d="M771 256v-56" class="st5"/>
    </g>
    <g id="XMLID_53_" class="st4">
      <path id="XMLID_52_" d="M604.7 700h-84.1V339.1l42.1-45.9 42 45.9z" class="st5"/>
      <path id="XMLID_46_" d="M675.2 700h-70.5V409.1c0-40.6 26.7-47.2 70.5-68.3z" class="st5"/>
      <g id="XMLID_49_">
        <g id="XMLID_315_">
          <g id="XMLID_323_">
            <path id="XMLID_325_" d="M630 620v18" class="st6"/>
            <path id="XMLID_324_" d="M649 620v18" class="st6"/>
          </g>
        </g>
        <g id="XMLID_300_">
          <g id="XMLID_305_">
            <path id="XMLID_310_" d="M630 582v18" class="st6"/>
            <path id="XMLID_309_" d="M649 582v18" class="st6"/>
          </g>
        </g>
        <g id="XMLID_283_">
          <g id="XMLID_290_">
            <path id="XMLID_293_" d="M630 544v18" class="st6"/>
            <path id="XMLID_291_" d="M649 544v18" class="st6"/>
          </g>
        </g>
        <g id="XMLID_269_">
          <g id="XMLID_276_">
            <path id="XMLID_278_" d="M630 506v18" class="st6"/>
            <path id="XMLID_277_" d="M649 506v18" class="st6"/>
          </g>
        </g>
        <g id="XMLID_255_">
          <g id="XMLID_262_">
            <path id="XMLID_264_" d="M630 468v18" class="st6"/>
            <path id="XMLID_263_" d="M649 468v18" class="st6"/>
          </g>
        </g>
        <g id="XMLID_244_">
          <g id="XMLID_248_">
            <path id="XMLID_250_" d="M630 430v18" class="st6"/>
            <path id="XMLID_249_" d="M649 430v18" class="st6"/>
          </g>
        </g>
        <g id="XMLID_234_">
          <g id="XMLID_238_">
            <path id="XMLID_240_" d="M630 392v18" class="st6"/>
            <path id="XMLID_239_" d="M649 392v18" class="st6"/>
          </g>
        </g>
      </g>
      <path id="XMLID_88_" d="M449.8 700h70.5V409.1c0-40.6-26.7-47.2-70.5-68.3z" class="st5"/>
      <g id="XMLID_54_">
        <g id="XMLID_322_">
          <g id="XMLID_326_">
            <path id="XMLID_328_" d="M492 620v18" class="st6"/>
            <path id="XMLID_327_" d="M474 620v18" class="st6"/>
          </g>
        </g>
        <g id="XMLID_312_">
          <g id="XMLID_316_">
            <path id="XMLID_318_" d="M492 582v18" class="st6"/>
            <path id="XMLID_317_" d="M474 582v18" class="st6"/>
          </g>
        </g>
        <g id="XMLID_302_">
          <g id="XMLID_306_">
            <path id="XMLID_308_" d="M492 544v18" class="st6"/>
            <path id="XMLID_307_" d="M474 544v18" class="st6"/>
          </g>
        </g>
        <g id="XMLID_292_">
          <g id="XMLID_296_">
            <path id="XMLID_298_" d="M492 506v18" class="st6"/>
            <path id="XMLID_297_" d="M474 506v18" class="st6"/>
          </g>
        </g>
        <g id="XMLID_279_">
          <g id="XMLID_286_">
            <path id="XMLID_288_" d="M492 468v18" class="st6"/>
            <path id="XMLID_287_" d="M474 468v18" class="st6"/>
          </g>
        </g>
        <g id="XMLID_265_">
          <g id="XMLID_272_">
            <path id="XMLID_274_" d="M492 430v18" class="st6"/>
            <path id="XMLID_273_" d="M474 430v18" class="st6"/>
          </g>
        </g>
        <g id="XMLID_251_">
          <g id="XMLID_258_">
            <path id="XMLID_260_" d="M492 392v18" class="st6"/>
            <path id="XMLID_259_" d="M474 392v18" class="st6"/>
          </g>
        </g>
      </g>
      <path id="XMLID_55_" d="M546 352v259" class="st5"/>
      <path id="XMLID_56_" d="M582 352v259" class="st5"/>
      <g id="XMLID_58_">
        <g id="XMLID_181_">
          <path id="XMLID_182_" d="M534.6 604h55.5" class="st5"/>
        </g>
        <g id="XMLID_178_">
          <path id="XMLID_179_" d="M534.6 566h55.5" class="st5"/>
        </g>
        <g id="XMLID_175_">
          <path id="XMLID_176_" d="M534.6 528h55.5" class="st5"/>
        </g>
        <g id="XMLID_172_">
          <path id="XMLID_173_" d="M534.6 490h55.5" class="st5"/>
        </g>
        <g id="XMLID_169_">
          <path id="XMLID_170_" d="M534.6 452h55.5" class="st5"/>
        </g>
        <g id="XMLID_166_">
          <path id="XMLID_167_" d="M534.6 414h55.5" class="st5"/>
        </g>
        <g id="XMLID_163_">
          <path id="XMLID_164_" d="M534.6 376h55.5" class="st5"/>
        </g>
      </g>
    </g>
    <g id="XMLID_61_" class="st4">
      <path id="XMLID_57_" d="M286.8 293.2h147.1v406.5H286.8z" class="st5"/>
      <path id="XMLID_60_" d="M306.4 323.4h17.3V612h-17.3z" class="st5"/>
      <path id="XMLID_63_" d="M337 323.4h17.3V612H337z" class="st5"/>
      <path id="XMLID_64_" d="M367.7 323.4H385V612h-17.3z" class="st5"/>
      <path id="XMLID_65_" d="M398.3 323.4h17.3V612h-17.3z" class="st5"/>
      <path id="XMLID_62_" d="M367.7 252h47.9v41.2h-47.9z" class="st5"/>
      <path id="XMLID_68_" d="M390 252v-36" class="st5"/>
      <path id="XMLID_66_" d="M304.5 266.3h45.4v26.9h-45.4z" class="st5"/>
    </g>
  </g>
  <path id="XMLID_25_" d="M209.8 388.5c-8.7-7-21-7-29.7 0-30 24.4-66.1 72.3-61.8 127.9 1.1 13.5 4.4 26.4 9.1 38.7.3.9.7 1.7 1.2 2.6 31.6 59.1 101.1 59.1 132.6 0 .4-.8.8-1.7 1.2-2.6 4.8-12.2 8.1-25.2 9.1-38.7 4.5-55.7-31.6-103.5-61.7-127.9" class="st7"/>
  <path id="XMLID_180_" d="M234.7 566.7c-35 0-63.3-44.3-63.3-99 0-35.3 11.8-66.2 29.6-83.8-7.1-1.9-14.8-.4-20.8 4.5-30 24.4-66.1 72.3-61.8 127.9 1.1 13.5 4.4 26.4 9.1 38.7.3.9.7 1.7 1.2 2.6 31.6 59.1 101.1 59.1 132.6 0 0 0 0-.1.1-.1-8.1 5.9-17.2 9.2-26.7 9.2" class="st8"/>
  <path id="XMLID_22_" d="M195 698V485" class="st9"/>
  <path id="XMLID_115_" d="M98 700.9c0-31.4 25.5-56.9 56.9-56.9s56.9 25.5 56.9 56.9" class="st7"/>
  <path id="XMLID_12_" d="M170.5 646.2c-4.9-1.4-10.1-2.2-15.5-2.2-31.4 0-56.9 25.5-56.9 56.9h31.1c-.1-26 17.4-48 41.3-54.7" class="st8"/>
  <path id="XMLID_91_" d="M285.6 628.2c-1.9-16.2.8-52.2 8.7-76.1 5.2-15.7 10-37.2 31.4-49.1 17.6-9.9 131.6-18 195.4-11.5 35.6 3.6 65.1 38.5 83.5 67.5 60.6 11.1 62.1 11.1 76.3 15.5 14.2 4.3 28.1 15.2 28.1 31.5v39.7H287.3c-.6-10-1.1-7.6-1.7-17.5" style="fill:#4dcbab"/>
  <path id="XMLID_189_" d="M681.9 571.4c-14.2-4.3-15.7-4.3-76.3-15.5-18.4-29-47.9-63.9-83.5-67.5-63.8-6.5-177.8 1.6-195.4 11.5-4.8 2.7-8.7 5.9-12.1 9.3 0 0 .1 0 .1-.1 17.6-9.9 131.6-18 195.4-11.5 33.5 3.4 64 34.6 82.7 62.4 2.2 3.3 5.7 5.5 9.6 6.2 54.3 10 53.7 10.1 67.5 14.3 14.2 4.3 28.1 15.2 28.1 31.5v30.4h12v-39.7c0-16.1-13.9-27-28.1-31.3" style="opacity:.49;fill:#4dcbab"/>
  <path id="XMLID_174_" d="M515 553.7v89.1" class="st12"/>
  <path id="XMLID_177_" d="m375 553.7-2.3 89.1" class="st12"/>
  <path id="XMLID_183_" d="M324.8 552.1c5.2-15.7 10-37.2 31.4-49.1 12.1-6.8 69.5-12.7 125-13.7-63-1.2-141.1 5.6-155.5 13.7-21.4 12-26.2 33.4-31.4 49.1-7.9 23.9-10.5 59.9-8.7 76.1.6 9.9 1.1 7.5 1.7 17.5h30.5c-.6-10-1.1-7.6-1.7-17.5-1.9-16.2.8-52.2 8.7-76.1" class="st13"/>
  <path id="XMLID_8_" d="M285.6 628.2c-1.9-16.2.8-52.2 8.7-76.1 5.2-15.7 10-37.2 31.4-49.1 17.6-9.9 131.6-18 195.4-11.5 33.4 3.4 61.4 34.3 79.9 62 2.4 3.5 6.1 6 10.3 6.7 54 9.9 55.9 10.1 69.6 14.2 14.2 4.3 28.1 15.2 28.1 31.5v39.7H287.3c-.6-9.9-1.1-7.5-1.7-17.4" class="st9"/>
  <path id="XMLID_108_" d="M515.1 559.3c-7.4-23.9-20.2-44.7-29.5-57.8 12.9.5 24.3 1.4 34.1 2.5 29.6 3.5 54 31.5 70.3 56.5z" class="st14"/>
  <path id="XMLID_186_" d="M530.2 539.5c-5.5-10 2.4-22 13.7-20.9 2.1.2 4.1.4 6.1.7 1.7.2 3.4.5 5 .9-10.6-8.5-22.5-14.6-35.3-16.1-9.8-1.2-21.3-2-34.1-2.5 9.3 13.1 22.1 33.9 29.5 57.8l24.9.4c-3-7.3-6.4-14.1-9.8-20.3" class="st15"/>
  <path id="XMLID_21_" d="M515.1 559.3c-7.4-23.9-20.2-44.7-29.5-57.8 12.9.5 24.3 1.4 34.1 2.5 29.6 3.5 54 31.5 70.3 56.5z" class="st9"/>
  <path id="XMLID_100_" d="m385 558.3 4.3-53.2c23.3-1.7 49-2.5 72.6-2.4 2.5 0 5 0 7.4.1 9 11.2 23.8 31.9 32.5 56.2z" class="st14"/>
  <path id="XMLID_185_" d="M403.1 532c.7-9.2 9.1-16.5 19.6-17.1 17.3-.9 35.2-1.3 52.1-1.2h2.8c-3-4.3-5.8-8-8.3-11-2.5 0-4.9-.1-7.4-.1-23.6-.1-49.3.7-72.6 2.4l-4.3 53.2 16 .1z" class="st15"/>
  <path id="XMLID_18_" d="m385 558.3 4.3-53.2c23.3-1.7 49-2.5 72.6-2.4 2.5 0 5 0 7.4.1 9 11.2 23.8 31.9 32.5 56.2z" class="st9"/>
  <path id="XMLID_93_" d="M356.8 658.8h-73.4c-9.9 0-18-8.1-18-18s8.1-18 18-18h73.4z" class="st16"/>
  <path id="XMLID_190_" d="M286.8 645.6c0-9.9 8.1-18 18-18h51.9v-4.7h-73.4c-9.9 0-18 8.1-18 18s8.1 18 18 18h9.4c-3.6-3.3-5.9-8.1-5.9-13.3" class="st13"/>
  <path id="XMLID_7_" d="M356.8 658.8h-73.4c-9.9 0-18-8.1-18-18v0c0-9.9 8.1-18 18-18h73.4z" class="st9"/>
  <path id="XMLID_99_" d="M712 658.8h-60.1v-30H712c8.3 0 15 6.7 15 15s-6.7 15-15 15" class="st16"/>
  <path id="XMLID_192_" d="M655.8 640.4H716c4.3 0 8.2 1.9 11 4.8 0-.5.1-.9.1-1.4 0-8.3-6.7-15-15-15H652v30h4v-18.4z" class="st13"/>
  <path id="XMLID_9_" d="M712 658.8h-60.1v-30H712c8.3 0 15 6.7 15 15v0c0 8.3-6.7 15-15 15" class="st9"/>
  <path id="XMLID_96_" d="M389.9 642.8h185.5v16H389.9z" class="st16"/>
  <path id="XMLID_160_" d="M389.9 642.8h185.5v8H389.9z" class="st13"/>
  <path id="XMLID_10_" d="M389.9 642.8h185.5v16H389.9z" class="st9"/>
  <circle id="XMLID_97_" cx="620.3" cy="655.1" r="44.5" class="st17"/>
  <circle id="XMLID_17_" cx="620.3" cy="655.1" r="44.5" class="st9"/>
  <circle id="XMLID_98_" cx="620.3" cy="655.1" r="24.1" class="st16"/>
  <circle id="XMLID_16_" cx="620.3" cy="655.1" r="24.1" class="st9"/>
  <circle id="XMLID_15_" cx="620.3" cy="655.1" r="7.4" class="st9"/>
  <circle id="XMLID_94_" cx="362.4" cy="655.1" r="44.5" class="st17"/>
  <circle id="XMLID_11_" cx="362.4" cy="655.1" r="44.5" class="st9"/>
  <circle id="XMLID_95_" cx="362.4" cy="655.1" r="24.1" class="st16"/>
  <circle id="XMLID_13_" cx="362.4" cy="655.1" r="24.1" class="st9"/>
  <circle id="XMLID_14_" cx="362.4" cy="655.1" r="7.4" class="st9"/>
  <path id="XMLID_105_" d="M376.8 504.1c-26.5 2.8-40.1 6.3-44.1 8.7-15.7 9.6-20.5 25.8-24.7 40.1-.5 1.6-.9 3.1-1.4 4.6-.1.4-.2.8-.4 1.2h66.9z" class="st14"/>
  <path id="XMLID_184_" d="M323.3 558.1c4.2-14.3 8.9-30.5 24.7-40.1 3.1-1.9 12.1-4.4 28.4-6.7l.5-7.2c-26.5 2.8-40.1 6.3-44.1 8.7-15.7 9.6-20.5 25.8-24.7 40.1-.5 1.6-.9 3.1-1.4 4.6-.1.4-.2.8-.4 1.2H323c.2-.2.2-.4.3-.6" class="st15"/>
  <path id="XMLID_109_" d="M376.8 504.1c-26.5 2.8-40.1 6.3-44.1 8.7-15.7 9.6-20.5 25.8-24.7 40.1-.5 1.6-.9 3.1-1.4 4.6-.1.4-.2.8-.4 1.2h66.9z" class="st9"/>
  <path id="XMLID_111_" d="M717.1 597.8c1.1 6.8-5.2 12.4-15.2 13.3-9.5.9-20.4-3.3-22.2-10.1-1.1-6.8 10.3-12.9 19.9-13.8 9.5-.9 16.2 3.8 17.5 10.6" class="st16"/>
  <path id="XMLID_110_" d="M717.1 597.8c1.1 6.8-5.2 12.4-15.2 13.3-9.5.9-20.4-3.3-22.2-10.1-1.1-6.8 10.3-12.9 19.9-13.8 9.5-.9 16.2 3.8 17.5 10.6" class="st9"/>
  <path id="XMLID_113_" d="M544 576.7h-19" class="st9"/>
  <path id="XMLID_114_" d="M407 576.7h-20" class="st9"/>
  <path id="XMLID_120_" d="M215.8 455.5c-3.6 4.1-4.5 9.6-3.1 14.5 4.6.2 9.2-1.6 12.4-5.3 3.6-4.1 4.5-9.6 3.1-14.5-4.5-.2-9.1 1.6-12.4 5.3" class="st18"/>
  <path id="XMLID_137_" d="M188 425.1c-.2 5.3 2.4 10 6.5 12.9 3.6-2.7 6-6.8 6.2-11.6.2-5.3-2.4-10-6.5-12.9-3.6 2.6-6 6.8-6.2 11.6" class="st18"/>
  <path id="XMLID_119_" d="M158.1 471.3c1.4 5.3 5.3 9.2 10.2 10.8 2.7-3.7 3.9-8.5 2.6-13.3-1.4-5.3-5.3-9.2-10.2-10.8-2.8 3.7-3.9 8.6-2.6 13.3" class="st18"/>
  <path id="XMLID_146_" d="M92.2 589.3c-1.2 5.3.6 10.6 4.2 14.3 4.1-2 7.3-5.8 8.4-10.6 1.2-5.3-.6-10.6-4.2-14.3-4.2 2-7.3 5.8-8.4 10.6" class="st18"/>
  <path id="XMLID_116_" d="M225.3 546.7c-3.6 3.2-5.1 8-4.4 12.5 4 .7 8.3-.4 11.6-3.4 3.6-3.2 5.1-8 4.4-12.5-4.1-.6-8.4.5-11.6 3.4" class="st18"/>
  <path id="XMLID_128_" d="M164.3 538s9.2 24.7 30.7 26.3" class="st9"/>
  <path id="XMLID_134_" d="M194.9 538.6s19.5-8.4 21.1-28.9" class="st9"/>
  <path id="XMLID_145_" d="M143.8 697c-5.1-14.2-18.7-24.3-34.7-24.3S79.6 682.8 74.4 697z" class="st7"/>
  <path id="XMLID_102_" d="M121.7 674.9c-3.9-1.4-8.1-2.2-12.6-2.2-16 0-29.5 10.1-34.7 24.3h25.1c3.8-10.3 11.9-18.4 22.2-22.1" style="fill:#ffaa58"/>
  <path id="XMLID_3_" d="M267.5 699.7H68.1" class="st9"/>
  <path id="XMLID_5_" d="M748.3 699.7H283" class="st9"/>
  <path id="XMLID_2_" d="M782.7 699.7H769" class="st9"/>
  <path id="XMLID_84_" d="M931.9 699.7H799.8" class="st9"/>
  <path id="XMLID_143_" d="M155 666v31" class="st9"/>
  <path id="XMLID_144_" d="M174.7 678 155 697" class="st9"/>
  <path id="XMLID_147_" d="M887 442v255" class="st18"/>
  <path id="XMLID_148_" d="m841.7 397.1 45.3 45.2" class="st18"/>
  <path id="XMLID_122_" d="M822.3 421.5h49.5v19.6h-49.5z" class="st7" transform="rotate(45 847.09 431.253)"/>
  <path id="XMLID_140_" d="M822.3 421.5h49.5v19.6h-49.5z" class="st18" transform="rotate(45 847.09 431.253)"/>
  <path id="XMLID_121_" d="M899.7 490v207" class="st18"/>
  <path id="XMLID_118_" d="m944.9 445.1-45.2 45.2" class="st18"/>
  <path id="XMLID_101_" d="M914.8 469.5h49.5v19.6h-49.5z" class="st7" transform="rotate(135 939.601 479.253)"/>
  <path id="XMLID_117_" d="M914.8 469.5h49.5v19.6h-49.5z" class="st18" transform="rotate(135 939.601 479.253)"/>
  <g id="XMLID_124_">
    <path id="XMLID_125_" d="M500 154.6v23.1" class="st20"/>
    <path id="XMLID_126_" d="m479.2 158.3 7.9 21.7" class="st20"/>
    <path id="XMLID_127_" d="m460.8 168.8 14.9 17.8" class="st20"/>
    <path id="XMLID_129_" d="m447.2 185.1 20.1 11.5" class="st20"/>
    <path id="XMLID_131_" d="m440 204.9 22.8 4.1" class="st20"/>
    <path id="XMLID_132_" d="m440 226.1 22.8-4" class="st20"/>
    <path id="XMLID_133_" d="m447.2 246 20.1-11.6" class="st20"/>
    <path id="XMLID_135_" d="m460.8 262.2 14.9-17.7" class="st20"/>
    <path id="XMLID_136_" d="m479.2 272.8 7.9-21.8" class="st20"/>
    <path id="XMLID_138_" d="M500 276.4v-23.1" class="st20"/>
    <path id="XMLID_139_" d="m520.8 272.8-7.9-21.8" class="st20"/>
    <path id="XMLID_141_" d="m539.2 262.2-14.9-17.7" class="st20"/>
    <path id="XMLID_142_" d="m552.8 246-20.1-11.6" class="st20"/>
    <path id="XMLID_149_" d="m560 226.1-22.8-4" class="st20"/>
    <path id="XMLID_150_" d="m560 204.9-22.8 4.1" class="st20"/>
    <path id="XMLID_151_" d="m552.8 185.1-20.1 11.5" class="st20"/>
    <path id="XMLID_153_" d="m539.2 168.8-14.9 17.8" class="st20"/>
    <path id="XMLID_159_" d="m520.8 158.3-7.9 21.7" class="st20"/>
  </g>
  <circle id="XMLID_123_" cx="500" cy="215.5" r="20.8" class="st7"/>
  <path id="XMLID_161_" d="M808.7 163.5c.1-.7.1-1.5.1-2.2 0-14.8-12-26.7-26.7-26.7-5.7 0-11 1.8-15.3 4.8-3.2-11.2-13.5-19.3-25.7-19.3-2.1 0-4.1.2-6.1.7-6.7-7.5-16.5-12.3-27.4-12.3-18.7 0-34.2 14-36.5 32.1-.4 0-.8-.1-1.3-.1-11.5 0-20.8 9.3-20.8 20.8 0 .7 0 1.5.1 2.2z" class="st20"/>
  <path id="XMLID_162_" d="M191.2 174.1c-4.5-6.4-12-10.7-20.5-10.7-2 0-3.9.2-5.7.7-6.3-7-15.5-11.5-25.7-11.5-17.5 0-32 13.1-34.1 30-.4 0-.8-.1-1.2-.1-10.7 0-19.5 8.7-19.5 19.5 0 .7 0 1.4.1 2.1h101.9" class="st20"/>
  <path id="XMLID_165_" d="M272 212.3h86.1" class="st20"/>
  <path id="XMLID_168_" d="M331.2 234.4h20.9" class="st20"/>
  <path id="XMLID_171_" d="M307.3 222.1h38.6" class="st20"/>
  <path id="XMLID_188_" d="M527.4 93h65.2" class="st20"/>
  <path id="XMLID_191_" d="M562.7 108.5H640" class="st20"/>
  <path id="XMLID_194_" d="M257.1 204.1c.9-2.1 1.4-4.4 1.4-6.9 0-9.3-7.4-16.8-16.6-16.8-2.3 0-4.5.5-6.5 1.3-3.7-9.9-13.2-17-24.3-17-13.3 0-24.2 10-25.7 22.8-1.1-.2-2.2-.4-3.3-.4-8.4 0-15.1 6.6-15.1 14.7 0 .7.1 1.5.2 2.2h89.9z" class="st20"/>
</svg>